# xmcd CD database file
#
# Track frame offsets:
#	150
#	13965
#	30212
#	41277
#	52145
#	63732
#	77795
#	91055
#	107810
#	121902
#	134262
#	149180
#	162160
#	174175
#	187577
#	201155
#	214230
#	226327
#	239667
#	252862
#	264967
#	281025
#	295090
#	307162
#	318752
#
# Disc length: 4433 seconds
#
# Revision: 2
# Processed by: cddbd v1.5.1PL2 Copyright (c) Steve Scherf et al.
# Submitted via: CDex 1.51
#
DISCID=67114f19
DTITLE=Various Artist - El Gran Tesoro De La Musica Cubana Vol. 1
DYEAR=2004
DGENRE=Salsa
TTITLE0=Antonio Maria Romeo y su Orquesta/Linda Cubana
TTITLE1=Paulina Alvarez y Orquesta Tipica/Rompiendo La Rutina
TTITLE2=Septeto Habanero/A La Loma De Belen
TTITLE3=Miguel Matamoros y Conjunto Maisi/Mama, Son De La Loma
TTITLE4=Rita Montaner/Ay, Que Sospecha Tengo
TTITLE5=Nico Saquito/Cuidadito, Compay Gallo
TTITLE6=Maria Teresa Vera/Porque Me Siento Triste
TTITLE7=Duo Hermanas Marti/Santa Cecilia
TTITLE8=Guillermo Portabales/El Fiel Enamorado
TTITLE9=Trio Hermanas Lago/Olvido
TTITLE10=Orquesta Arcano y sus Maravillas/Rico Melao
TTITLE11=Maria de los Angeles Santana/Mariposa
TTITLE12=Felo Bergaza/La Comparsa
TTITLE13=Orlando Vallejo y Orquesta/Alborada
TTITLE14=Celina Gonzalez/A La Caridad Del Cobre
TTITLE15=Compay Segundo y su grupo/Villancico Guajiro
TTITLE16=Orlando Contreras y Orquesta Enrique Jorrin/El Madrugador
TTITLE17=Radeunda Lima y Evelio Rodriguez/Ya Usted Lo Ve, Ya Usted Lo Sabe
TTITLE18=Orquesta America de Ninon Mondejar/Rico Vacilon
TTITLE19=Laito Sureda y Conjunto de Senen Suarez/Ritmo En La Habana
TTITLE20=Arsenio Rodriguez/Blanca Paloma
TTITLE21=Orquesta Anacaona/Traigo Mi Coco Seco
TTITLE22=Raul Planas y Banda Kubavana/Soy Hijo Del Siboney
TTITLE23=Manuel Licea "Puntillita"/El Maranon
TTITLE24=Conjunto Casino/La Conga Del Casino
EXTD=YEAR: 2004
EXTT0=
EXTT1=
EXTT2=
EXTT3=
EXTT4=
EXTT5=
EXTT6=
EXTT7=
EXTT8=
EXTT9=
EXTT10=
EXTT11=
EXTT12=
EXTT13=
EXTT14=
EXTT15=
EXTT16=
EXTT17=
EXTT18=
EXTT19=
EXTT20=
EXTT21=
EXTT22=
EXTT23=
EXTT24=
PLAYORDER=
